<?xml version="1.0" encoding="utf-8"?>
<!-- Generator: Adobe Illustrator 16.0.0, SVG Export Plug-In . SVG Version: 6.00 Build 0)  -->
<!DOCTYPE svg PUBLIC "-//W3C//DTD SVG 1.1//EN" "http://www.w3.org/Graphics/SVG/1.1/DTD/svg11.dtd">
<svg version="1.1" id="Instagram" xmlns="http://www.w3.org/2000/svg" xmlns:xlink="http://www.w3.org/1999/xlink" x="0px" y="0px"
	 width="28px" height="28px" viewBox="125.999 125.999 28 28" enable-background="new 125.999 125.999 28 28" xml:space="preserve">
<path id="instagram-instagram" fill="#8C8C8C" d="M150.769,137.844h-2.437c0.177,0.689,0.282,1.41,0.282,2.155
	c0,4.759-3.857,8.616-8.615,8.616s-8.615-3.856-8.615-8.616c0-0.745,0.105-1.465,0.283-2.155h-2.438v11.848
	c0,0.594,0.482,1.076,1.078,1.076h19.383c0.597,0,1.078-0.482,1.078-1.076V137.844L150.769,137.844z M150.769,130.306
	c0-0.595-0.481-1.077-1.078-1.077h-3.229c-0.595,0-1.077,0.482-1.077,1.077v3.231c0,0.595,0.482,1.077,1.077,1.077h3.229
	c0.597,0,1.078-0.482,1.078-1.077V130.306z M139.999,134.614c-2.974,0-5.385,2.41-5.385,5.384c0,2.973,2.411,5.385,5.385,5.385
	c2.974,0,5.385-2.412,5.385-5.385C145.384,137.024,142.973,134.614,139.999,134.614 M150.769,153.999h-21.539
	c-1.784,0-3.23-1.447-3.23-3.231v-21.539c0-1.784,1.446-3.23,3.23-3.23h21.539c1.785,0,3.23,1.446,3.23,3.23v21.539
	C153.999,152.552,152.554,153.999,150.769,153.999"/>
</svg>
