<?xml version="1.0" encoding="utf-8"?>
<!-- Generator: Adobe Illustrator 16.0.0, SVG Export Plug-In . SVG Version: 6.00 Build 0)  -->
<!DOCTYPE svg PUBLIC "-//W3C//DTD SVG 1.1//EN" "http://www.w3.org/Graphics/SVG/1.1/DTD/svg11.dtd">
<svg version="1.1" xmlns="http://www.w3.org/2000/svg" xmlns:xlink="http://www.w3.org/1999/xlink" x="0px" y="0px"
	 width="251.042px" height="250.5px" viewBox="0 0 251.042 250.5" enable-background="new 0 0 251.042 250.5" xml:space="preserve">
<g id="Layer_1" display="none">
	
		<image display="inline" overflow="visible" width="450" height="470" xlink:href="../../../18902824_10209776755871823_162948017_n.jpg"  transform="matrix(1 0 0 1 75.1689 -428.5889)">
	</image>
</g>
<g id="Layer_3" display="none">
	<rect x="-22.167" y="-31.203" display="inline" stroke="#FFFFFF" stroke-miterlimit="10" width="296" height="330.082"/>
</g>
<g id="Layer_2">
	<g>
		<path fill="none" stroke="#FFFFFF" stroke-width="1.5" stroke-linecap="round" stroke-miterlimit="10" d="M50.954,51.252
			c-1.942-8.42-3.111-28.543,1.159-32.812c6.133-6.135,35.118-0.889,48.845,5.934c13.07-14.545,24.301-23.196,24.301-23.196"/>
		<path fill="none" stroke="#FFFFFF" stroke-width="1.5" stroke-linecap="round" stroke-miterlimit="10" d="M199.563,51.252
			c1.944-8.42,3.113-28.543-1.155-32.812c-6.135-6.135-35.12-0.889-48.848,5.934C136.49,9.829,125.258,1.178,125.258,1.178"/>
		<path fill="none" stroke="#FFFFFF" stroke-width="1.5" stroke-linecap="round" stroke-miterlimit="10" d="M51.005,199.638
			c-8.418,1.94-28.544,3.109-32.812-1.158c-6.134-6.135-0.887-35.117,5.936-48.848c-14.545-13.069-23.197-24.3-23.197-24.3"/>
		<path fill="none" stroke="#FFFFFF" stroke-width="1.5" stroke-linecap="round" stroke-miterlimit="10" d="M51.005,51.139
			c-8.418-1.94-28.544-3.222-32.812,1.044c-6.134,6.137-0.887,35.122,5.936,48.848C9.583,114.099,0.932,125.332,0.932,125.332"/>
		<path fill="none" stroke="#FFFFFF" stroke-width="1.5" stroke-linecap="round" stroke-miterlimit="10" d="M199.992,199.638
			c8.418,1.94,28.545,3.109,32.813-1.158c6.135-6.135,0.89-35.117-5.932-48.848c14.545-13.069,23.195-24.3,23.195-24.3"/>
		<path fill="none" stroke="#FFFFFF" stroke-width="1.5" stroke-linecap="round" stroke-miterlimit="10" d="M199.992,51.026
			c8.418-1.941,28.545-3.109,32.813,1.156c6.135,6.137,0.89,35.122-5.932,48.848c14.545,13.068,23.195,24.302,23.195,24.302"/>
		<path fill="none" stroke="#FFFFFF" stroke-width="1.5" stroke-linecap="round" stroke-miterlimit="10" d="M50.954,199.563
			c-1.942,8.417-3.111,28.321,1.159,32.589c6.133,6.136,35.118,0.888,48.845-5.932c13.07,14.545,24.301,23.195,24.301,23.195"/>
		<path fill="none" stroke="#FFFFFF" stroke-width="1.5" stroke-linecap="round" stroke-miterlimit="10" d="M199.563,199.344
			c2.215,9.604,2.832,28.822-1.155,32.809c-6.135,6.136-35.12,0.888-48.848-5.932c-13.069,14.545-24.302,23.195-24.302,23.195"/>
		<path fill="none" stroke="#FFFFFF" stroke-width="1.5" stroke-linecap="round" stroke-miterlimit="10" d="M85.677,87.305
			c-1.288-7.158-5.435-19.031-7.183-20.779c9.944-8.104,23.563-22.282,26.787-27.53c9.298,4.332,14.117,6.172,18.353,7.276"/>
		<path fill="none" stroke="#FFFFFF" stroke-width="1.5" stroke-linecap="round" stroke-miterlimit="10" d="M85.737,87.352
			c-7.159-1.285-19.031-5.431-20.78-7.179c-8.366,10.266-22.76,23.861-27.526,26.786c4.33,9.298,6.169,14.118,7.275,18.351"/>
		<path fill="none" stroke="#FFFFFF" stroke-width="1.5" stroke-linecap="round" stroke-miterlimit="10" d="M85.848,163.268
			c-7.159,1.29-19.029,5.437-20.781,7.183c-8.056-9.889-22.199-23.515-27.524-26.786c4.33-9.298,6.17-14.118,7.274-18.354"/>
		<path fill="none" stroke="#FFFFFF" stroke-width="1.5" stroke-linecap="round" stroke-miterlimit="10" d="M162.179,163.268
			c7.157,1.29,19.027,5.437,20.779,7.183c8.101-9.945,22.28-23.563,27.524-26.786c-4.331-9.298-6.168-14.118-7.272-18.354"/>
		<path fill="none" stroke="#FFFFFF" stroke-width="1.5" stroke-linecap="round" stroke-miterlimit="10" d="M161.959,87.352
			c7.156-1.285,19.029-5.431,20.779-7.179c8.101,9.941,22.28,23.563,27.527,26.786c-4.332,9.315-6.063,13.988-7.167,18.242"/>
		<path fill="none" stroke="#FFFFFF" stroke-width="1.5" stroke-linecap="round" stroke-miterlimit="10" d="M161.59,87.305
			c1.289-7.158,5.436-19.031,7.184-20.779c-9.943-8.104-23.564-22.282-26.787-27.53c-9.298,4.332-14.117,6.172-18.353,7.276"/>
		<path fill="none" stroke="#FFFFFF" stroke-width="1.5" stroke-linecap="round" stroke-miterlimit="10" d="M86.201,163.362
			c-1.288,7.159-5.435,19.027-7.183,20.779c9.943,8.099,23.563,22.28,26.787,27.523c9.298-4.327,14.117-6.17,18.353-7.275"/>
		<path fill="none" stroke="#FFFFFF" stroke-width="1.5" stroke-linecap="round" stroke-miterlimit="10" d="M162.116,163.362
			c1.287,7.159,5.434,19.027,7.182,20.779c-9.944,8.099-23.563,22.28-26.787,27.523c-9.298-4.327-14.117-6.17-18.353-7.275"/>
	</g>
	<g>
		<rect x="51.42" y="114.111" fill="none" width="148.16" height="22.371"/>
		<path fill="#FFFFFF" d="M56.931,126.324v6.362h-3.362v-18.075h5.888c1.208,0,2.254,0.142,3.138,0.425
			c0.883,0.284,1.612,0.68,2.188,1.188c0.574,0.509,1,1.117,1.274,1.825c0.275,0.709,0.413,1.483,0.413,2.325
			c0,0.875-0.146,1.677-0.438,2.406c-0.292,0.729-0.729,1.356-1.313,1.881c-0.584,0.525-1.313,0.934-2.188,1.226
			s-1.9,0.438-3.075,0.438H56.931z M56.931,123.699h2.525c0.616,0,1.154-0.077,1.612-0.231s0.838-0.375,1.138-0.662
			c0.3-0.288,0.524-0.638,0.675-1.051c0.15-0.412,0.225-0.872,0.225-1.381c0-0.483-0.074-0.921-0.225-1.313s-0.375-0.725-0.675-1
			s-0.68-0.485-1.138-0.631c-0.458-0.146-0.996-0.219-1.612-0.219h-2.525V123.699z"/>
		<path fill="#FFFFFF" d="M83.032,132.687h-2.601c-0.292,0-0.531-0.073-0.719-0.219s-0.323-0.327-0.406-0.544l-1.35-3.688h-7.487
			l-1.351,3.688c-0.066,0.192-0.198,0.367-0.394,0.525c-0.196,0.158-0.436,0.237-0.719,0.237h-2.612l7.1-18.075h3.438
			L83.032,132.687z M71.332,125.861h5.763l-2.2-6.013c-0.101-0.267-0.211-0.581-0.331-0.943c-0.121-0.362-0.24-0.756-0.356-1.182
			c-0.117,0.426-0.231,0.821-0.344,1.188c-0.112,0.367-0.224,0.688-0.331,0.963L71.332,125.861z"/>
		<path fill="#FFFFFF" d="M88.369,125.624v7.063h-3.362v-18.075h5.513c1.233,0,2.289,0.127,3.169,0.382
			c0.879,0.254,1.6,0.61,2.162,1.068s0.975,1.006,1.237,1.644s0.394,1.34,0.394,2.106c0,0.608-0.089,1.184-0.269,1.725
			c-0.179,0.542-0.438,1.034-0.774,1.476c-0.338,0.441-0.755,0.829-1.25,1.162c-0.496,0.334-1.061,0.601-1.694,0.8
			c0.425,0.242,0.792,0.588,1.101,1.038l4.524,6.675h-3.024c-0.292,0-0.54-0.059-0.744-0.175c-0.204-0.117-0.377-0.283-0.519-0.5
			l-3.8-5.788c-0.143-0.216-0.299-0.37-0.469-0.462c-0.171-0.092-0.424-0.138-0.757-0.138H88.369z M88.369,123.212h2.101
			c0.633,0,1.185-0.079,1.656-0.238c0.471-0.158,0.857-0.377,1.162-0.656c0.304-0.278,0.531-0.61,0.682-0.993
			c0.149-0.384,0.225-0.805,0.225-1.263c0-0.917-0.302-1.621-0.906-2.112c-0.604-0.492-1.527-0.737-2.769-0.737h-2.15V123.212z"/>
		<path fill="#FFFFFF" d="M117.157,132.687h-2.601c-0.292,0-0.531-0.073-0.719-0.219s-0.323-0.327-0.406-0.544l-1.35-3.688h-7.487
			l-1.351,3.688c-0.066,0.192-0.198,0.367-0.394,0.525c-0.196,0.158-0.436,0.237-0.719,0.237h-2.612l7.1-18.075h3.438
			L117.157,132.687z M105.457,125.861h5.763l-2.2-6.013c-0.101-0.267-0.211-0.581-0.331-0.943c-0.121-0.362-0.24-0.756-0.356-1.182
			c-0.117,0.426-0.231,0.821-0.344,1.188c-0.112,0.367-0.224,0.688-0.331,0.963L105.457,125.861z"/>
		<path fill="#FFFFFF" d="M135.068,123.649c0,1.324-0.221,2.541-0.662,3.649s-1.063,2.063-1.863,2.862
			c-0.799,0.801-1.762,1.421-2.887,1.863c-1.125,0.441-2.371,0.662-3.738,0.662h-6.899v-18.075h6.899
			c1.367,0,2.613,0.224,3.738,0.669c1.125,0.446,2.088,1.066,2.887,1.862c0.801,0.796,1.422,1.748,1.863,2.856
			S135.068,122.324,135.068,123.649z M131.631,123.649c0-0.992-0.133-1.882-0.4-2.669c-0.266-0.788-0.645-1.454-1.137-2
			s-1.09-0.965-1.793-1.257c-0.705-0.291-1.498-0.438-2.382-0.438h-3.512v12.726h3.512c0.884,0,1.677-0.146,2.382-0.438
			c0.703-0.292,1.301-0.711,1.793-1.257c0.492-0.545,0.871-1.212,1.137-2C131.498,125.53,131.631,124.641,131.631,123.649z"/>
		<path fill="#FFFFFF" d="M141.494,132.687h-3.375v-18.075h3.375V132.687z"/>
		<path fill="#FFFFFF" d="M153.855,130.212c0.758,0,1.42-0.069,1.982-0.207c0.563-0.137,1.098-0.326,1.605-0.568v-3.287h-2.262
			c-0.217,0-0.389-0.061-0.514-0.182s-0.188-0.269-0.188-0.443v-1.9h6.014v7.313c-0.459,0.333-0.936,0.623-1.432,0.869
			c-0.496,0.245-1.025,0.447-1.588,0.605c-0.563,0.159-1.164,0.277-1.807,0.356c-0.641,0.079-1.332,0.119-2.074,0.119
			c-1.316,0-2.529-0.229-3.639-0.688c-1.107-0.458-2.066-1.096-2.875-1.913c-0.807-0.816-1.439-1.791-1.893-2.925
			c-0.455-1.133-0.682-2.37-0.682-3.712c0-1.358,0.221-2.604,0.662-3.738c0.441-1.133,1.068-2.107,1.881-2.925
			c0.813-0.816,1.799-1.45,2.957-1.899c1.158-0.45,2.459-0.676,3.9-0.676c1.475,0,2.752,0.219,3.83,0.656
			c1.08,0.438,1.994,1.007,2.744,1.707l-0.975,1.524c-0.191,0.309-0.445,0.463-0.762,0.463c-0.201,0-0.404-0.066-0.613-0.2
			c-0.268-0.158-0.539-0.316-0.818-0.475s-0.588-0.296-0.926-0.413c-0.338-0.116-0.717-0.212-1.137-0.287
			c-0.422-0.075-0.906-0.112-1.457-0.112c-0.891,0-1.697,0.149-2.418,0.449c-0.721,0.301-1.336,0.729-1.844,1.288
			s-0.9,1.229-1.176,2.013s-0.412,1.658-0.412,2.625c0,1.041,0.146,1.969,0.438,2.781s0.699,1.498,1.225,2.056
			c0.525,0.559,1.15,0.985,1.875,1.281S152.998,130.212,153.855,130.212z"/>
		<path fill="#FFFFFF" d="M173.1,126.018c0.121,0.288,0.24,0.577,0.357,0.869c0.115-0.3,0.236-0.596,0.361-0.888
			s0.258-0.57,0.4-0.838l5.35-10.012c0.066-0.125,0.135-0.226,0.207-0.301c0.07-0.074,0.15-0.129,0.236-0.162
			c0.088-0.033,0.186-0.054,0.295-0.063c0.107-0.008,0.236-0.013,0.387-0.013h2.537v18.075h-2.961v-11.675
			c0-0.217,0.006-0.454,0.018-0.713c0.014-0.258,0.031-0.521,0.057-0.787l-5.463,10.25c-0.125,0.233-0.287,0.414-0.486,0.544
			c-0.201,0.129-0.434,0.193-0.701,0.193h-0.463c-0.266,0-0.5-0.064-0.699-0.193c-0.199-0.13-0.363-0.311-0.488-0.544l-5.537-10.288
			c0.033,0.275,0.057,0.544,0.068,0.807c0.014,0.263,0.02,0.506,0.02,0.731v11.675h-2.963v-18.075h2.537
			c0.15,0,0.279,0.005,0.389,0.013c0.107,0.009,0.205,0.029,0.293,0.063s0.17,0.088,0.244,0.162
			c0.074,0.075,0.146,0.176,0.213,0.301l5.4,10.037C172.848,125.453,172.979,125.73,173.1,126.018z"/>
		<path fill="#FFFFFF" d="M198.281,114.611v2.675h-8.012v5.013h6.313v2.588h-6.313v5.112h8.012v2.688h-11.4v-18.075H198.281z"/>
	</g>
	<g>
		<rect x="51.42" y="92.793" fill="none" width="148.16" height="9.69"/>
		<path fill="#FFFFFF" d="M99.48,93.059v1.06h-3.009v8.255h-1.262v-8.255h-3.022v-1.06H99.48z"/>
		<path fill="#FFFFFF" d="M107.612,102.373h-0.976c-0.112,0-0.203-0.028-0.272-0.085c-0.069-0.056-0.122-0.127-0.156-0.214
			l-0.871-2.249h-4.18l-0.871,2.249c-0.03,0.078-0.082,0.147-0.155,0.208c-0.074,0.061-0.165,0.091-0.273,0.091h-0.975l3.724-9.314
			h1.281L107.612,102.373z M101.508,98.915h3.478l-1.463-3.789c-0.096-0.234-0.188-0.527-0.279-0.878
			c-0.048,0.178-0.095,0.341-0.14,0.491c-0.046,0.149-0.091,0.28-0.134,0.393L101.508,98.915z"/>
		<path fill="#FFFFFF" d="M114.274,93.059v1.06h-3.009v8.255h-1.262v-8.255h-3.022v-1.06H114.274z"/>
		<path fill="#FFFFFF" d="M123.615,97.719c0,0.698-0.11,1.338-0.331,1.921s-0.533,1.085-0.937,1.505
			c-0.402,0.42-0.887,0.746-1.452,0.979c-0.565,0.231-1.19,0.348-1.876,0.348c-0.685,0-1.309-0.116-1.871-0.348
			c-0.563-0.232-1.047-0.559-1.45-0.979c-0.402-0.42-0.715-0.922-0.936-1.505s-0.332-1.223-0.332-1.921
			c0-0.697,0.111-1.338,0.332-1.921c0.221-0.582,0.533-1.085,0.936-1.508c0.403-0.422,0.887-0.751,1.45-0.984
			c0.563-0.234,1.187-0.352,1.871-0.352c0.686,0,1.311,0.117,1.876,0.352c0.565,0.233,1.05,0.563,1.452,0.984
			c0.403,0.423,0.716,0.926,0.937,1.508C123.504,96.381,123.615,97.021,123.615,97.719z M122.322,97.719
			c0-0.571-0.078-1.085-0.234-1.54s-0.377-0.84-0.663-1.154c-0.286-0.313-0.633-0.556-1.04-0.725s-0.862-0.253-1.365-0.253
			c-0.498,0-0.951,0.084-1.358,0.253s-0.755,0.411-1.043,0.725c-0.288,0.314-0.51,0.699-0.666,1.154s-0.234,0.969-0.234,1.54
			c0,0.572,0.078,1.085,0.234,1.537c0.156,0.453,0.378,0.837,0.666,1.151c0.288,0.313,0.636,0.555,1.043,0.721
			c0.407,0.167,0.86,0.251,1.358,0.251c0.503,0,0.958-0.084,1.365-0.251c0.407-0.166,0.754-0.407,1.04-0.721
			c0.286-0.314,0.507-0.698,0.663-1.151C122.244,98.804,122.322,98.291,122.322,97.719z"/>
		<path fill="#FFFFFF" d="M128.959,101.372c0.385,0,0.729-0.065,1.033-0.195c0.303-0.13,0.559-0.312,0.77-0.546
			c0.211-0.233,0.371-0.514,0.48-0.838c0.111-0.325,0.166-0.683,0.166-1.073v-5.661h1.254v5.661c0,0.538-0.084,1.036-0.256,1.495
			c-0.172,0.46-0.416,0.857-0.734,1.193s-0.707,0.599-1.166,0.789c-0.461,0.19-0.977,0.286-1.547,0.286
			c-0.572,0-1.088-0.096-1.549-0.286c-0.459-0.19-0.848-0.453-1.169-0.789c-0.32-0.336-0.566-0.733-0.737-1.193
			c-0.171-0.459-0.257-0.957-0.257-1.495v-5.661h1.255v5.655c0,0.39,0.055,0.747,0.164,1.072c0.111,0.325,0.271,0.604,0.482,0.839
			c0.209,0.233,0.467,0.417,0.773,0.549C128.227,101.306,128.572,101.372,128.959,101.372z"/>
		<path fill="#FFFFFF" d="M142.127,102.373h-0.975c-0.113,0-0.203-0.028-0.273-0.085c-0.068-0.056-0.121-0.127-0.156-0.214
			l-0.871-2.249h-4.18l-0.871,2.249c-0.029,0.078-0.082,0.147-0.154,0.208c-0.074,0.061-0.166,0.091-0.273,0.091h-0.975l3.723-9.314
			h1.281L142.127,102.373z M136.023,98.915h3.479l-1.463-3.789c-0.096-0.234-0.189-0.527-0.279-0.878
			c-0.049,0.178-0.096,0.341-0.141,0.491c-0.045,0.149-0.09,0.28-0.133,0.393L136.023,98.915z"/>
		<path fill="#FFFFFF" d="M147.184,101.457c0.252,0,0.482-0.013,0.693-0.036c0.209-0.023,0.408-0.06,0.594-0.107
			c0.188-0.048,0.363-0.104,0.527-0.172s0.33-0.145,0.494-0.231v-2.054h-1.443c-0.082,0-0.148-0.023-0.197-0.071
			c-0.051-0.048-0.076-0.106-0.076-0.176v-0.715h2.861v3.575c-0.234,0.169-0.479,0.316-0.732,0.441
			c-0.254,0.126-0.523,0.231-0.813,0.315c-0.287,0.085-0.596,0.147-0.926,0.188s-0.688,0.062-1.072,0.062
			c-0.676,0-1.297-0.115-1.859-0.348c-0.563-0.231-1.049-0.557-1.455-0.975c-0.408-0.418-0.727-0.92-0.953-1.505
			s-0.342-1.229-0.342-1.931c0-0.71,0.111-1.358,0.336-1.943c0.223-0.585,0.541-1.086,0.955-1.505
			c0.414-0.418,0.914-0.742,1.502-0.972c0.586-0.229,1.244-0.345,1.973-0.345c0.367,0,0.711,0.027,1.027,0.082
			c0.314,0.054,0.609,0.132,0.879,0.233c0.271,0.103,0.521,0.226,0.752,0.371c0.229,0.145,0.443,0.309,0.643,0.49l-0.357,0.572
			c-0.072,0.117-0.168,0.176-0.285,0.176c-0.07,0-0.146-0.024-0.229-0.072c-0.107-0.061-0.229-0.134-0.363-0.221
			s-0.299-0.17-0.49-0.25c-0.193-0.08-0.42-0.148-0.684-0.205c-0.262-0.056-0.572-0.084-0.932-0.084c-0.525,0-1,0.085-1.424,0.257
			c-0.426,0.171-0.787,0.416-1.086,0.734s-0.529,0.704-0.689,1.156c-0.16,0.453-0.24,0.962-0.24,1.524
			c0,0.59,0.084,1.115,0.25,1.576c0.168,0.462,0.402,0.853,0.705,1.174c0.305,0.32,0.664,0.565,1.08,0.734
			S146.682,101.457,147.184,101.457z"/>
		<path fill="#FFFFFF" d="M158.311,93.059v1.027h-4.471v3.094h3.619v0.988h-3.619v3.178h4.471v1.027h-5.738v-9.314H158.311z"/>
	</g>
	<g>
		<rect x="51.42" y="145.23" fill="none" width="148.16" height="11.186"/>
		<path fill="#FFFFFF" d="M94.658,151.326v3.484h-1.255v-9.314h2.75c0.589,0,1.102,0.068,1.537,0.205
			c0.436,0.136,0.796,0.33,1.082,0.581c0.286,0.252,0.499,0.555,0.641,0.91c0.141,0.355,0.211,0.752,0.211,1.189
			c0,0.434-0.076,0.83-0.228,1.189c-0.151,0.36-0.374,0.67-0.666,0.93c-0.293,0.26-0.655,0.463-1.089,0.607
			c-0.434,0.146-0.93,0.218-1.488,0.218H94.658z M94.658,150.325h1.495c0.359,0,0.677-0.047,0.952-0.143s0.506-0.229,0.692-0.399
			c0.186-0.172,0.327-0.376,0.422-0.614c0.096-0.238,0.144-0.501,0.144-0.787c0-0.594-0.184-1.057-0.55-1.391
			s-0.919-0.501-1.66-0.501h-1.495V150.325z"/>
		<path fill="#FFFFFF" d="M102.711,154.811h-1.261v-9.314h1.261V154.811z"/>
		<path fill="#FFFFFF" d="M110.947,145.496v1.027h-4.472v3.094h3.62v0.988h-3.62v3.178h4.472v1.027h-5.739v-9.314H110.947z"/>
		<path fill="#FFFFFF" d="M114.145,150.924v3.887h-1.255v-9.314h2.633c0.589,0,1.099,0.06,1.527,0.179s0.783,0.291,1.063,0.517
			c0.28,0.226,0.486,0.497,0.621,0.815c0.134,0.319,0.201,0.676,0.201,1.069c0,0.33-0.052,0.638-0.155,0.924
			c-0.104,0.285-0.255,0.542-0.452,0.77s-0.438,0.422-0.722,0.582c-0.283,0.16-0.605,0.281-0.965,0.364
			c0.156,0.091,0.294,0.223,0.416,0.396l2.717,3.698h-1.118c-0.229,0-0.398-0.089-0.507-0.267l-2.418-3.328
			c-0.074-0.104-0.154-0.179-0.24-0.224c-0.087-0.046-0.217-0.068-0.391-0.068H114.145z M114.145,150.007h1.319
			c0.368,0,0.692-0.044,0.972-0.133s0.514-0.215,0.702-0.377c0.188-0.163,0.33-0.356,0.426-0.582
			c0.095-0.226,0.143-0.475,0.143-0.747c0-0.555-0.183-0.974-0.549-1.255s-0.911-0.423-1.635-0.423h-1.378V150.007z"/>
		<path fill="#FFFFFF" d="M127.398,152.887c0.07,0,0.133,0.028,0.189,0.084l0.494,0.54c-0.383,0.441-0.846,0.786-1.389,1.033
			c-0.543,0.247-1.2,0.37-1.966,0.37c-0.672,0-1.28-0.115-1.826-0.348c-0.546-0.231-1.012-0.557-1.397-0.975
			s-0.685-0.92-0.897-1.505c-0.212-0.585-0.318-1.229-0.318-1.931s0.114-1.345,0.341-1.931c0.228-0.585,0.548-1.087,0.959-1.508
			c0.412-0.42,0.904-0.746,1.479-0.978c0.574-0.232,1.208-0.349,1.901-0.349c0.685,0,1.275,0.106,1.771,0.319
			c0.496,0.212,0.938,0.5,1.324,0.864l-0.41,0.578c-0.031,0.044-0.064,0.079-0.104,0.107s-0.096,0.042-0.17,0.042
			c-0.057,0-0.115-0.021-0.178-0.062c-0.064-0.041-0.139-0.092-0.225-0.152c-0.088-0.061-0.189-0.126-0.307-0.195
			s-0.255-0.134-0.416-0.195c-0.16-0.061-0.347-0.111-0.559-0.152c-0.213-0.041-0.457-0.062-0.734-0.062
			c-0.499,0-0.955,0.085-1.368,0.257c-0.414,0.171-0.771,0.415-1.069,0.73c-0.299,0.316-0.532,0.702-0.699,1.157
			s-0.25,0.965-0.25,1.527c0,0.581,0.083,1.099,0.25,1.554s0.395,0.84,0.683,1.154c0.288,0.313,0.63,0.553,1.023,0.718
			c0.395,0.165,0.819,0.247,1.274,0.247c0.277,0,0.526-0.017,0.747-0.049c0.222-0.032,0.426-0.083,0.614-0.152
			s0.365-0.157,0.527-0.264s0.326-0.232,0.49-0.38C127.258,152.919,127.33,152.887,127.398,152.887z"/>
		<path fill="#FFFFFF" d="M131.234,154.811h-1.262v-9.314h1.262V154.811z"/>
		<path fill="#FFFFFF" d="M134.631,145.538c0.053,0.028,0.115,0.086,0.186,0.173l5.395,7.02c-0.014-0.112-0.021-0.222-0.025-0.328
			c-0.006-0.106-0.008-0.209-0.008-0.309v-6.598h1.105v9.314h-0.637c-0.1,0-0.184-0.018-0.25-0.052
			c-0.068-0.035-0.135-0.094-0.199-0.176l-5.389-7.014c0.01,0.108,0.016,0.215,0.02,0.318c0.004,0.104,0.008,0.2,0.008,0.286v6.637
			h-1.105v-9.314h0.65C134.492,145.496,134.576,145.51,134.631,145.538z"/>
		<path fill="#FFFFFF" d="M147.711,153.895c0.252,0,0.482-0.013,0.693-0.036c0.209-0.023,0.408-0.06,0.594-0.107
			c0.188-0.048,0.363-0.104,0.527-0.172s0.33-0.145,0.494-0.231v-2.054h-1.443c-0.082,0-0.148-0.023-0.197-0.071
			c-0.051-0.048-0.076-0.106-0.076-0.176v-0.715h2.861v3.575c-0.234,0.169-0.479,0.316-0.732,0.441
			c-0.254,0.126-0.523,0.231-0.813,0.315c-0.287,0.085-0.596,0.147-0.926,0.188s-0.688,0.062-1.072,0.062
			c-0.676,0-1.297-0.115-1.859-0.348c-0.563-0.231-1.049-0.557-1.455-0.975c-0.408-0.418-0.727-0.92-0.953-1.505
			s-0.342-1.229-0.342-1.931c0-0.71,0.111-1.358,0.336-1.943c0.223-0.585,0.541-1.086,0.955-1.505
			c0.414-0.418,0.914-0.742,1.502-0.972c0.586-0.229,1.244-0.345,1.973-0.345c0.367,0,0.711,0.027,1.027,0.082
			c0.314,0.054,0.609,0.132,0.879,0.233c0.271,0.103,0.521,0.226,0.752,0.371c0.229,0.145,0.443,0.309,0.643,0.49l-0.357,0.572
			c-0.072,0.117-0.168,0.176-0.285,0.176c-0.07,0-0.146-0.024-0.229-0.072c-0.107-0.061-0.229-0.134-0.363-0.221
			s-0.299-0.17-0.49-0.25c-0.193-0.08-0.42-0.148-0.684-0.205c-0.262-0.056-0.572-0.084-0.932-0.084c-0.525,0-1,0.085-1.424,0.257
			c-0.426,0.171-0.787,0.416-1.086,0.734s-0.529,0.704-0.689,1.156c-0.16,0.453-0.24,0.962-0.24,1.524
			c0,0.59,0.084,1.115,0.25,1.576c0.168,0.462,0.402,0.853,0.705,1.174c0.305,0.32,0.664,0.565,1.08,0.734
			S147.209,153.895,147.711,153.895z"/>
		<path fill="#FFFFFF" d="M157.871,146.952c-0.039,0.064-0.08,0.113-0.123,0.146c-0.043,0.032-0.1,0.049-0.17,0.049
			c-0.072,0-0.158-0.037-0.256-0.111c-0.098-0.073-0.221-0.154-0.371-0.243c-0.148-0.089-0.328-0.17-0.539-0.244
			c-0.211-0.073-0.465-0.11-0.764-0.11c-0.281,0-0.531,0.038-0.748,0.114c-0.217,0.075-0.396,0.179-0.543,0.309
			c-0.145,0.13-0.254,0.282-0.328,0.458s-0.109,0.365-0.109,0.568c0,0.261,0.063,0.476,0.191,0.647
			c0.127,0.171,0.297,0.317,0.506,0.438c0.211,0.121,0.449,0.227,0.715,0.315c0.268,0.089,0.541,0.181,0.82,0.276
			c0.279,0.095,0.553,0.202,0.818,0.321c0.268,0.119,0.506,0.27,0.715,0.452c0.211,0.182,0.379,0.405,0.508,0.669
			c0.127,0.265,0.191,0.59,0.191,0.976c0,0.407-0.07,0.789-0.209,1.146c-0.139,0.358-0.34,0.669-0.607,0.934
			c-0.266,0.264-0.594,0.472-0.98,0.624c-0.389,0.151-0.83,0.227-1.322,0.227c-0.604,0-1.152-0.109-1.648-0.328
			s-0.92-0.514-1.271-0.887l0.365-0.599c0.033-0.047,0.076-0.087,0.127-0.12c0.049-0.032,0.104-0.049,0.164-0.049
			c0.092,0,0.195,0.049,0.313,0.146s0.264,0.205,0.439,0.322c0.176,0.116,0.387,0.224,0.637,0.321
			c0.248,0.098,0.553,0.146,0.914,0.146c0.299,0,0.564-0.041,0.799-0.124c0.234-0.082,0.432-0.198,0.594-0.348
			c0.164-0.149,0.287-0.328,0.375-0.536c0.086-0.208,0.129-0.439,0.129-0.695c0-0.281-0.063-0.513-0.191-0.692
			c-0.127-0.18-0.295-0.33-0.504-0.451c-0.207-0.122-0.445-0.225-0.711-0.31c-0.268-0.084-0.539-0.171-0.82-0.26
			c-0.279-0.089-0.551-0.191-0.818-0.309c-0.266-0.117-0.504-0.269-0.711-0.455c-0.209-0.187-0.377-0.419-0.504-0.698
			c-0.129-0.28-0.191-0.625-0.191-1.037c0-0.329,0.063-0.647,0.191-0.956c0.127-0.308,0.313-0.58,0.555-0.818
			c0.244-0.238,0.543-0.429,0.9-0.572c0.357-0.143,0.768-0.215,1.232-0.215c0.52,0,0.994,0.083,1.424,0.247
			c0.428,0.165,0.803,0.403,1.123,0.716L157.871,146.952z"/>
	</g>
	<line fill="none" stroke="#FFFFFF" stroke-miterlimit="10" x1="53.5" y1="107.983" x2="198.25" y2="107.983"/>
	<line fill="none" stroke="#FFFFFF" stroke-miterlimit="10" x1="53.5" y1="139.749" x2="198.25" y2="139.749"/>
</g>
<g id="Layer_4" display="none">
</g>
</svg>
